<!-- <svg width="89" height="65" viewBox="0 0 89 65" fill="none" xmlns="http://www.w3.org/2000/svg">
<path d="M88.8023 14.3615V59.9691H77.9341V19.7956L52.8985 49.8772H74.4408V59.9691H44.1651L36.9844 51.4298C43.1301 45.1547 54.6758 31.1337 56.5859 28.529C58.0091 26.5882 55.4215 24.8416 53.6748 25.6179L34.8496 48.5187C31.615 44.249 24.7577 35.5157 23.2051 34.7394C21.6525 33.9631 20.3587 35.0628 19.9058 35.7097V59.9691H9.42578V14.3615H19.9058L34.8496 31.8282L49.4052 14.3615H88.8023Z" fill="#231A1A"/>
<path d="M77.9341 0H88.8023V10.8682H77.9341V0Z" fill="#231A1A"/>
<path d="M47.782 47.0673C68.0449 31.6798 80.1558 13.5229 74.8323 6.51265C69.5088 -0.497605 48.7668 6.29344 28.5039 21.6809C28.2567 21.8685 28.0108 22.0566 27.7662 22.2451C45.1245 9.25946 62.6075 3.46132 67.0368 9.29416C71.5256 15.2051 60.9089 30.8224 43.3238 44.1763C25.7387 57.5302 7.84433 63.5638 3.35562 57.6529C0.880818 54.3939 2.99768 48.1845 8.34248 41.0307C1.24382 50.0748 -1.68894 58.0973 1.45358 62.2355C6.77707 69.2457 27.519 62.4547 47.782 47.0673Z" fill="#AC2730"/>
</svg> -->





<svg width="110" height="110" viewBox="0 0 412 417" fill="none" xmlns="http://www.w3.org/2000/svg">
<path d="M42.0213 357V306.091H51.2436V349.269H73.6655V357H42.0213ZM125.177 331.545C125.177 337.031 124.15 341.729 122.095 345.64C120.057 349.534 117.273 352.517 113.743 354.589C110.229 356.66 106.244 357.696 101.786 357.696C97.3282 357.696 93.3343 356.66 89.8045 354.589C86.2913 352.501 83.5072 349.509 81.4522 345.615C79.4139 341.704 78.3947 337.014 78.3947 331.545C78.3947 326.06 79.4139 321.37 81.4522 317.476C83.5072 313.565 86.2913 310.574 89.8045 308.502C93.3343 306.431 97.3282 305.395 101.786 305.395C106.244 305.395 110.229 306.431 113.743 308.502C117.273 310.574 120.057 313.565 122.095 317.476C124.15 321.37 125.177 326.06 125.177 331.545ZM115.905 331.545C115.905 327.684 115.3 324.428 114.091 321.776C112.898 319.108 111.24 317.095 109.119 315.736C106.998 314.36 104.554 313.673 101.786 313.673C99.0185 313.673 96.5742 314.36 94.4529 315.736C92.3317 317.095 90.6663 319.108 89.4565 321.776C88.2633 324.428 87.6667 327.684 87.6667 331.545C87.6667 335.407 88.2633 338.671 89.4565 341.339C90.6663 343.991 92.3317 346.004 94.4529 347.38C96.5742 348.739 99.0185 349.418 101.786 349.418C104.554 349.418 106.998 348.739 109.119 347.38C111.24 346.004 112.898 343.991 114.091 341.339C115.3 338.671 115.905 335.407 115.905 331.545ZM168.001 322.348C167.587 321.006 167.015 319.804 166.286 318.744C165.574 317.666 164.712 316.747 163.701 315.984C162.707 315.222 161.563 314.65 160.271 314.269C158.978 313.871 157.569 313.673 156.045 313.673C153.31 313.673 150.874 314.36 148.737 315.736C146.599 317.111 144.917 319.133 143.69 321.801C142.481 324.453 141.876 327.684 141.876 331.496C141.876 335.34 142.481 338.597 143.69 341.265C144.9 343.933 146.582 345.963 148.737 347.355C150.891 348.731 153.393 349.418 156.244 349.418C158.829 349.418 161.066 348.921 162.955 347.927C164.861 346.933 166.328 345.524 167.355 343.701C168.383 341.862 168.896 339.707 168.896 337.238L170.984 337.561H157.163V330.352H177.82V336.467C177.82 340.826 176.892 344.596 175.036 347.778C173.18 350.96 170.628 353.412 167.38 355.136C164.132 356.843 160.403 357.696 156.194 357.696C151.504 357.696 147.386 356.644 143.839 354.539C140.31 352.418 137.55 349.41 135.562 345.516C133.59 341.605 132.604 336.964 132.604 331.595C132.604 327.485 133.184 323.815 134.344 320.583C135.52 317.352 137.161 314.609 139.266 312.355C141.37 310.085 143.839 308.361 146.673 307.185C149.507 305.991 152.589 305.395 155.92 305.395C158.738 305.395 161.364 305.809 163.8 306.638C166.237 307.45 168.399 308.61 170.288 310.118C172.194 311.626 173.76 313.416 174.987 315.487C176.213 317.559 177.017 319.846 177.398 322.348H168.001ZM186.738 357V306.091H219.849V313.822H195.96V327.643H218.134V335.374H195.96V349.269H220.048V357H186.738ZM256.925 320.086C256.693 317.915 255.715 316.225 253.991 315.015C252.284 313.805 250.064 313.2 247.329 313.2C245.407 313.2 243.758 313.49 242.383 314.07C241.007 314.65 239.955 315.437 239.226 316.432C238.497 317.426 238.124 318.561 238.107 319.837C238.107 320.898 238.347 321.818 238.828 322.597C239.325 323.375 239.996 324.038 240.841 324.585C241.687 325.116 242.623 325.563 243.65 325.928C244.678 326.292 245.714 326.599 246.758 326.847L251.53 328.04C253.453 328.488 255.3 329.093 257.074 329.855C258.863 330.617 260.463 331.579 261.871 332.739C263.296 333.899 264.423 335.299 265.252 336.94C266.081 338.58 266.495 340.503 266.495 342.707C266.495 345.69 265.733 348.316 264.208 350.587C262.683 352.84 260.479 354.605 257.596 355.881C254.729 357.141 251.257 357.771 247.18 357.771C243.22 357.771 239.781 357.157 236.864 355.931C233.964 354.705 231.694 352.915 230.053 350.562C228.429 348.209 227.551 345.342 227.418 341.961H236.491C236.624 343.734 237.171 345.209 238.132 346.386C239.093 347.562 240.344 348.441 241.885 349.021C243.443 349.601 245.183 349.891 247.106 349.891C249.111 349.891 250.867 349.592 252.376 348.996C253.9 348.383 255.093 347.537 255.955 346.46C256.817 345.366 257.256 344.09 257.273 342.632C257.256 341.306 256.867 340.213 256.104 339.351C255.342 338.473 254.273 337.743 252.898 337.163C251.539 336.567 249.948 336.036 248.125 335.572L242.333 334.081C238.14 333.004 234.826 331.371 232.39 329.184C229.97 326.98 228.76 324.055 228.76 320.409C228.76 317.41 229.573 314.783 231.197 312.529C232.837 310.275 235.066 308.527 237.883 307.284C240.701 306.025 243.891 305.395 247.454 305.395C251.066 305.395 254.232 306.025 256.949 307.284C259.684 308.527 261.83 310.259 263.388 312.479C264.945 314.683 265.749 317.219 265.799 320.086H256.925ZM272.479 313.822V306.091H313.097V313.822H297.362V357H288.214V313.822H272.479ZM330.15 306.091V357H320.928V306.091H330.15ZM383.713 323.268H374.416C374.151 321.743 373.662 320.393 372.949 319.216C372.236 318.023 371.35 317.012 370.289 316.183C369.229 315.355 368.019 314.733 366.66 314.319C365.318 313.888 363.868 313.673 362.31 313.673C359.542 313.673 357.09 314.369 354.952 315.761C352.814 317.136 351.14 319.158 349.931 321.826C348.721 324.478 348.116 327.717 348.116 331.545C348.116 335.44 348.721 338.721 349.931 341.389C351.157 344.041 352.831 346.046 354.952 347.405C357.09 348.747 359.534 349.418 362.285 349.418C363.81 349.418 365.235 349.219 366.561 348.822C367.903 348.407 369.104 347.803 370.165 347.007C371.242 346.212 372.145 345.234 372.874 344.074C373.62 342.914 374.134 341.588 374.416 340.097L383.713 340.146C383.365 342.566 382.611 344.836 381.45 346.957C380.307 349.079 378.807 350.951 376.951 352.575C375.095 354.183 372.924 355.442 370.438 356.354C367.953 357.249 365.193 357.696 362.161 357.696C357.686 357.696 353.692 356.66 350.179 354.589C346.666 352.517 343.898 349.526 341.877 345.615C339.855 341.704 338.844 337.014 338.844 331.545C338.844 326.06 339.863 321.37 341.901 317.476C343.94 313.565 346.716 310.574 350.229 308.502C353.742 306.431 357.719 305.395 362.161 305.395C364.994 305.395 367.629 305.793 370.066 306.588C372.502 307.384 374.673 308.552 376.578 310.093C378.484 311.618 380.05 313.49 381.276 315.711C382.519 317.915 383.331 320.434 383.713 323.268Z" fill="#DC3430"/>
<path d="M24.6905 388.616C25.0865 388.616 25.4238 388.755 25.7025 389.034C25.9812 389.313 26.1205 389.65 26.1205 390.046C26.1205 390.442 25.9812 390.779 25.7025 391.058C25.4238 391.337 25.0865 391.476 24.6905 391.476C24.3092 391.476 23.9792 391.337 23.7005 391.058C23.4218 390.779 23.2825 390.442 23.2825 390.046C23.2825 389.65 23.4218 389.313 23.7005 389.034C23.9792 388.755 24.3092 388.616 24.6905 388.616ZM32.1705 388.88V398.472C32.1705 400.291 31.6059 401.706 30.4765 402.718C29.3472 403.745 27.8292 404.258 25.9225 404.258H23.7445C21.7205 404.258 20.1438 403.693 19.0145 402.564C18.0025 401.552 17.4965 400.188 17.4965 398.472V394.534L18.8605 393.434H20.1805V398.23C20.1805 399.609 20.5325 400.584 21.2365 401.156C21.9405 401.728 23.1432 402.014 24.8445 402.014C26.4872 402.014 27.6532 401.75 28.3425 401.222C29.1052 400.635 29.4865 399.638 29.4865 398.23V388.88H32.1705ZM37.8836 383.248V396.206C37.8836 396.353 37.9276 396.47 38.0156 396.558C38.1036 396.69 38.243 396.756 38.4336 396.756H39.0056V399H37.5756C36.9743 399 36.4463 398.787 35.9916 398.362C35.4636 397.878 35.1996 397.284 35.1996 396.58V383.248H37.8836ZM45.4798 388.88V396.426V396.756H46.6018V399H45.8318L45.0178 398.098H44.9738C44.4752 398.699 43.8518 399 43.1038 399H38.8578V396.756H42.1798C42.3852 396.756 42.5318 396.697 42.6198 396.58C42.7518 396.463 42.8178 396.316 42.8178 396.14V388.88H45.4798ZM40.7058 400.606C41.1018 400.606 41.4392 400.745 41.7178 401.024C41.9965 401.303 42.1358 401.64 42.1358 402.036C42.1358 402.432 41.9965 402.769 41.7178 403.048C41.4392 403.327 41.1018 403.466 40.7058 403.466C40.3098 403.466 39.9725 403.327 39.6938 403.048C39.4152 402.769 39.2758 402.432 39.2758 402.036C39.2758 401.64 39.4152 401.303 39.6938 401.024C39.9725 400.745 40.3098 400.606 40.7058 400.606ZM44.0498 400.606C44.4458 400.606 44.7832 400.745 45.0618 401.024C45.3405 401.303 45.4798 401.64 45.4798 402.036C45.4798 402.432 45.3405 402.769 45.0618 403.048C44.7832 403.327 44.4458 403.466 44.0498 403.466C43.6685 403.466 43.3385 403.327 43.0598 403.048C42.7812 402.769 42.6418 402.432 42.6418 402.036C42.6418 401.64 42.7812 401.303 43.0598 401.024C43.3385 400.745 43.6685 400.606 44.0498 400.606ZM51.7218 384.04C52.1178 384.04 52.4551 384.179 52.7338 384.458C53.0125 384.737 53.1518 385.074 53.1518 385.47C53.1518 385.851 53.0125 386.181 52.7338 386.46C52.4551 386.739 52.1178 386.878 51.7218 386.878C51.3405 386.878 51.0105 386.739 50.7318 386.46C50.4531 386.181 50.3138 385.851 50.3138 385.47C50.3138 385.074 50.4531 384.737 50.7318 384.458C51.0105 384.179 51.3405 384.04 51.7218 384.04ZM53.0638 388.88V396.58C53.0638 397.152 52.8731 397.68 52.4918 398.164C52.0078 398.721 51.4065 399 50.6878 399H46.4418V396.756H49.8298C49.9911 396.756 50.1305 396.697 50.2478 396.58C50.3505 396.477 50.4018 396.353 50.4018 396.206V388.88H53.0638ZM58.7879 383.248V398.45L57.4239 399.55H56.1039V383.248H58.7879ZM66.4534 388.88V396.756H67.5754V399H66.4314C66.3141 400.76 65.6174 402.109 64.3414 403.048C63.2854 403.825 61.9874 404.214 60.4474 404.214C60.1834 404.214 59.8974 404.207 59.5894 404.192L58.5114 402.85V401.904C58.9807 401.977 59.4354 402.014 59.8754 402.014C62.4714 402.014 63.7694 400.753 63.7694 398.23V388.88H66.4534ZM74.054 388.88V396.58C74.054 397.152 73.8634 397.68 73.482 398.164C72.998 398.721 72.3967 399 71.678 399H67.432V396.756H70.82C70.9814 396.756 71.1207 396.697 71.238 396.58C71.3407 396.477 71.392 396.353 71.392 396.206V388.88H74.054ZM69.236 400.606C69.632 400.606 69.9694 400.745 70.248 401.024C70.5267 401.303 70.666 401.64 70.666 402.036C70.666 402.432 70.5267 402.769 70.248 403.048C69.9694 403.327 69.632 403.466 69.236 403.466C68.8547 403.466 68.5247 403.327 68.246 403.048C67.9674 402.769 67.828 402.432 67.828 402.036C67.828 401.64 67.9674 401.303 68.246 401.024C68.5247 400.745 68.8547 400.606 69.236 400.606ZM72.602 400.606C72.998 400.606 73.328 400.745 73.592 401.024C73.8707 401.303 74.01 401.64 74.01 402.036C74.01 402.432 73.8707 402.769 73.592 403.048C73.328 403.327 72.998 403.466 72.602 403.466C72.206 403.466 71.8687 403.327 71.59 403.048C71.3114 402.769 71.172 402.432 71.172 402.036C71.172 401.64 71.3114 401.303 71.59 401.024C71.8687 400.745 72.206 400.606 72.602 400.606ZM79.7997 383.248V398.45L78.4357 399.55H77.1157V383.248H79.7997ZM93.4036 398.912C92.7729 399.088 92.1569 399.176 91.5556 399.176C90.0009 399.176 88.7396 398.575 87.7716 397.372C86.9796 396.36 86.5836 395.165 86.5836 393.786C86.5836 392.275 87.0309 391.051 87.9256 390.112C88.8496 389.115 90.1036 388.616 91.6876 388.616C92.8609 388.616 93.8436 388.917 94.6356 389.518C95.6329 390.237 96.1316 391.293 96.1316 392.686V398.472C96.1316 400.364 95.5302 401.816 94.3276 402.828C93.6382 403.415 92.7802 403.825 91.7536 404.06C91.2402 404.177 90.6682 404.236 90.0376 404.236C89.8762 404.236 89.6196 404.221 89.2676 404.192L88.1896 402.85V401.904C88.6589 401.977 89.1209 402.014 89.5756 402.014C91.9369 402.014 93.2129 400.98 93.4036 398.912ZM93.4476 392.686C93.4476 392.055 93.2349 391.571 92.8096 391.234C92.5162 390.985 92.1422 390.86 91.6876 390.86C90.9249 390.86 90.3236 391.124 89.8836 391.652C89.4582 392.18 89.2456 392.906 89.2456 393.83C89.2456 394.783 89.4876 395.539 89.9716 396.096C90.4702 396.639 91.1449 396.91 91.9956 396.91C92.4649 396.91 92.9489 396.822 93.4476 396.646V392.686ZM101.542 383.248V398.45L100.178 399.55H98.8578V383.248H101.542ZM106.501 381.4C106.853 381.4 107.154 381.532 107.403 381.796C107.667 382.045 107.799 382.346 107.799 382.698C107.799 383.065 107.675 383.38 107.425 383.644C107.176 383.893 106.868 384.018 106.501 384.018C106.135 384.018 105.819 383.893 105.555 383.644C105.306 383.38 105.181 383.065 105.181 382.698C105.181 382.346 105.306 382.045 105.555 381.796C105.819 381.532 106.135 381.4 106.501 381.4ZM104.829 384.04C105.225 384.04 105.563 384.179 105.841 384.458C106.12 384.737 106.259 385.074 106.259 385.47C106.259 385.851 106.12 386.181 105.841 386.46C105.563 386.739 105.225 386.878 104.829 386.878C104.433 386.878 104.096 386.746 103.817 386.482C103.553 386.203 103.421 385.866 103.421 385.47C103.421 385.074 103.553 384.737 103.817 384.458C104.096 384.179 104.433 384.04 104.829 384.04ZM108.173 384.04C108.555 384.04 108.885 384.179 109.163 384.458C109.442 384.737 109.581 385.074 109.581 385.47C109.581 385.851 109.442 386.181 109.163 386.46C108.885 386.739 108.555 386.878 108.173 386.878C107.777 386.878 107.44 386.739 107.161 386.46C106.883 386.181 106.743 385.851 106.743 385.47C106.743 385.074 106.883 384.737 107.161 384.458C107.44 384.179 107.777 384.04 108.173 384.04ZM109.229 388.88V398.472C109.229 400.349 108.628 401.794 107.425 402.806C106.736 403.422 105.849 403.847 104.763 404.082C104.235 404.185 103.693 404.236 103.135 404.236C102.945 404.236 102.688 404.221 102.365 404.192L101.287 402.85V401.904C101.757 401.977 102.211 402.014 102.651 402.014C105.247 402.014 106.545 400.753 106.545 398.23V388.88H109.229ZM123.388 388.616C123.784 388.616 124.121 388.755 124.4 389.034C124.678 389.313 124.818 389.65 124.818 390.046C124.818 390.442 124.678 390.779 124.4 391.058C124.121 391.337 123.784 391.476 123.388 391.476C123.006 391.476 122.676 391.337 122.398 391.058C122.119 390.779 121.98 390.442 121.98 390.046C121.98 389.65 122.119 389.313 122.398 389.034C122.676 388.755 123.006 388.616 123.388 388.616ZM130.868 388.88V396.756H131.968V399H130.846C130.728 400.731 130.076 402.051 128.888 402.96C127.773 403.825 126.35 404.258 124.62 404.258H122.442C120.564 404.258 119.068 403.774 117.954 402.806C116.78 401.779 116.194 400.335 116.194 398.472V394.534L117.558 393.434H118.878V398.23C118.878 399.623 119.222 400.599 119.912 401.156C120.616 401.728 121.826 402.014 123.542 402.014C125.199 402.014 126.365 401.757 127.04 401.244C127.802 400.657 128.184 399.653 128.184 398.23V388.88H130.868ZM138.55 388.88V396.426V396.756H139.672V399H138.902L138.088 398.098H138.044C137.545 398.699 136.922 399 136.174 399H131.928V396.756H135.25C135.455 396.756 135.602 396.697 135.69 396.58C135.822 396.463 135.888 396.316 135.888 396.14V388.88H138.55ZM133.776 400.606C134.172 400.606 134.509 400.745 134.788 401.024C135.067 401.303 135.206 401.64 135.206 402.036C135.206 402.432 135.067 402.769 134.788 403.048C134.509 403.327 134.172 403.466 133.776 403.466C133.38 403.466 133.043 403.327 132.764 403.048C132.485 402.769 132.346 402.432 132.346 402.036C132.346 401.64 132.485 401.303 132.764 401.024C133.043 400.745 133.38 400.606 133.776 400.606ZM137.12 400.606C137.516 400.606 137.853 400.745 138.132 401.024C138.411 401.303 138.55 401.64 138.55 402.036C138.55 402.432 138.411 402.769 138.132 403.048C137.853 403.327 137.516 403.466 137.12 403.466C136.739 403.466 136.409 403.327 136.13 403.048C135.851 402.769 135.712 402.432 135.712 402.036C135.712 401.64 135.851 401.303 136.13 401.024C136.409 400.745 136.739 400.606 137.12 400.606ZM142.57 392.752C143.069 391.315 143.978 390.222 145.298 389.474C146.281 388.917 147.344 388.638 148.488 388.638C149.632 388.638 150.681 388.946 151.634 389.562C152.822 390.281 153.673 391.344 154.186 392.752L153.922 393.368C153.335 393.632 152.719 394.087 152.074 394.732C151.458 395.407 151.055 396.081 150.864 396.756H154.406V399H149.566C149.155 399 148.781 398.809 148.444 398.428H148.334C147.997 398.809 147.608 399 147.168 399H139.512V396.756H145.892C145.716 396.155 145.342 395.517 144.77 394.842C144.139 394.138 143.487 393.647 142.812 393.368L142.57 392.752ZM151.37 392.576C151.018 391.96 150.541 391.505 149.94 391.212C149.485 390.992 148.979 390.882 148.422 390.882C147.835 390.882 147.278 391.007 146.75 391.256C146.163 391.549 145.709 391.989 145.386 392.576C145.885 392.796 146.413 393.236 146.97 393.896C147.586 394.585 148.041 395.333 148.334 396.14H148.422C148.701 395.319 149.177 394.534 149.852 393.786C150.395 393.185 150.901 392.781 151.37 392.576ZM158.188 392.686C158.188 391.293 158.672 390.237 159.64 389.518C160.403 388.931 161.444 388.638 162.764 388.638C164.055 388.638 165.148 389.019 166.042 389.782C167.172 390.75 167.736 392.121 167.736 393.896C167.736 395.568 167.289 396.954 166.394 398.054C165.529 399.125 164.407 399.66 163.028 399.66C161.811 399.66 160.85 399.205 160.146 398.296C159.677 398.765 159.105 399 158.43 399H154.228V396.756H157.616C157.778 396.756 157.917 396.697 158.034 396.58C158.137 396.477 158.188 396.353 158.188 396.206V392.686ZM160.85 396.514C161.393 397.101 162.016 397.394 162.72 397.394C163.41 397.394 163.974 397.093 164.414 396.492C164.854 395.876 165.074 395.084 165.074 394.116C165.074 393.06 164.832 392.231 164.348 391.63C163.908 391.117 163.336 390.86 162.632 390.86C162.104 390.86 161.686 391.029 161.378 391.366C161.026 391.689 160.85 392.129 160.85 392.686V396.514ZM175.895 388.748C176.394 388.66 176.973 388.616 177.633 388.616C179.32 388.616 180.684 389.159 181.725 390.244C182.649 391.227 183.111 392.444 183.111 393.896V396.008C183.111 396.345 183.104 396.595 183.089 396.756H183.661V399H183.375L182.649 398.098H182.583C182.466 398.23 182.341 398.355 182.209 398.472C181.769 398.824 181.278 399 180.735 399H173.673V396.756H179.877C180.244 396.756 180.427 396.573 180.427 396.206V394.16C180.427 393.148 180.119 392.334 179.503 391.718C178.931 391.146 178.102 390.838 177.017 390.794C176.518 390.794 176.144 390.823 175.895 390.882V388.748ZM188.792 384.04C189.188 384.04 189.525 384.179 189.804 384.458C190.083 384.737 190.222 385.074 190.222 385.47C190.222 385.851 190.083 386.181 189.804 386.46C189.525 386.739 189.188 386.878 188.792 386.878C188.411 386.878 188.081 386.739 187.802 386.46C187.523 386.181 187.384 385.851 187.384 385.47C187.384 385.074 187.523 384.737 187.802 384.458C188.081 384.179 188.411 384.04 188.792 384.04ZM190.134 388.88V396.426V396.756H191.256V399H190.486L189.672 398.098H189.628C189.129 398.699 188.506 399 187.758 399H183.512V396.756H186.834C187.039 396.756 187.186 396.697 187.274 396.58C187.406 396.463 187.472 396.316 187.472 396.14V388.88H190.134ZM195.012 396.756C194.66 395.905 194.484 394.952 194.484 393.896C194.484 392.165 195.019 390.823 196.09 389.87C196.985 389.063 198.129 388.653 199.522 388.638C200.769 388.638 201.788 388.931 202.58 389.518C203.548 390.251 204.032 391.307 204.032 392.686V396.206C204.032 396.338 204.069 396.463 204.142 396.58C204.259 396.697 204.391 396.756 204.538 396.756H204.736V399H203.768C203.108 399 202.543 398.765 202.074 398.296C201.355 399.205 200.402 399.66 199.214 399.66C197.938 399.66 196.853 399.191 195.958 398.252H195.914L195.298 399H191.096V396.756H195.012ZM201.348 392.686C201.348 392.143 201.179 391.703 200.842 391.366C200.534 391.029 200.094 390.86 199.522 390.86C198.803 390.86 198.224 391.139 197.784 391.696C197.359 392.253 197.146 393.001 197.146 393.94C197.146 394.967 197.366 395.803 197.806 396.448C198.246 397.093 198.811 397.416 199.5 397.416C200.131 397.416 200.747 397.115 201.348 396.514V392.686ZM219.262 381.4C219.629 381.4 219.937 381.532 220.186 381.796C220.45 382.045 220.582 382.353 220.582 382.72C220.582 383.087 220.45 383.395 220.186 383.644C219.937 383.893 219.629 384.018 219.262 384.018C218.896 384.018 218.588 383.893 218.338 383.644C218.089 383.395 217.964 383.087 217.964 382.72C217.964 382.353 218.089 382.045 218.338 381.796C218.588 381.532 218.896 381.4 219.262 381.4ZM217.59 384.04C217.986 384.04 218.324 384.179 218.602 384.458C218.881 384.737 219.02 385.074 219.02 385.47C219.02 385.851 218.881 386.181 218.602 386.46C218.324 386.739 217.986 386.878 217.59 386.878C217.209 386.878 216.879 386.739 216.6 386.46C216.322 386.181 216.182 385.851 216.182 385.47C216.182 385.074 216.322 384.737 216.6 384.458C216.879 384.179 217.209 384.04 217.59 384.04ZM220.934 384.04C221.33 384.04 221.668 384.179 221.946 384.458C222.225 384.737 222.364 385.074 222.364 385.47C222.364 385.851 222.225 386.181 221.946 386.46C221.668 386.739 221.33 386.878 220.934 386.878C220.538 386.878 220.201 386.739 219.922 386.46C219.644 386.181 219.504 385.851 219.504 385.47C219.504 385.074 219.644 384.737 219.922 384.458C220.201 384.179 220.538 384.04 220.934 384.04ZM227.93 388.88V396.58C227.93 397.24 227.696 397.812 227.226 398.296C226.772 398.765 226.214 399 225.554 399H220.934L220.12 398.098H220.054C219.57 398.699 218.954 399 218.206 399H213.586L212.75 398.098H212.684C212.2 398.699 211.584 399 210.836 399H204.588V396.756H209.978C210.345 396.756 210.528 396.573 210.528 396.206V391.41H213.212V395.81C213.212 396.235 213.205 396.551 213.19 396.756H217.348C217.715 396.756 217.898 396.573 217.898 396.206V390.134H220.582V396.008C220.582 396.096 220.575 396.228 220.56 396.404C220.56 396.565 220.56 396.683 220.56 396.756H224.696C225.063 396.756 225.246 396.573 225.246 396.206V388.88H227.93ZM235.651 399C234.038 399 232.769 398.45 231.845 397.35C231.068 396.411 230.679 395.253 230.679 393.874C230.679 392.231 231.141 390.948 232.065 390.024C233.033 389.085 234.273 388.616 235.783 388.616C236.883 388.616 237.837 388.887 238.643 389.43C239.699 390.193 240.227 391.278 240.227 392.686V396.756H240.931V399H240.205C240.103 400.584 239.545 401.823 238.533 402.718C237.829 403.349 236.986 403.781 236.003 404.016C235.314 404.177 234.639 404.258 233.979 404.258C233.759 404.258 233.444 404.243 233.033 404.214H232.967L231.845 402.828V401.86C232.447 401.963 233.011 402.014 233.539 402.014C235.945 402.014 237.257 401.009 237.477 399H235.651ZM237.543 392.686C237.543 392.099 237.353 391.637 236.971 391.3C236.634 391.007 236.238 390.86 235.783 390.86C235.035 390.86 234.441 391.124 234.001 391.652C233.561 392.18 233.341 392.906 233.341 393.83C233.341 394.725 233.583 395.436 234.067 395.964C234.551 396.492 235.211 396.756 236.047 396.756H237.543V392.686ZM246.114 389.122C247.786 388.389 249.421 388.022 251.02 388.022C253.088 388.022 254.665 388.667 255.75 389.958C256.674 391.073 257.136 392.547 257.136 394.38V396.58C257.136 397.24 256.887 397.819 256.388 398.318C255.933 398.773 255.391 399 254.76 399H249.414C248.651 399 248.109 398.919 247.786 398.758H247.698C247.375 398.919 246.833 399 246.07 399H240.746V396.756H244.706C244.457 396.404 244.273 396.03 244.156 395.634C244.009 395.209 243.936 394.732 243.936 394.204C243.936 393.324 244.156 392.547 244.596 391.872C244.963 391.329 245.469 390.919 246.114 390.64V389.122ZM254.452 394.732C254.452 393.089 254.093 391.901 253.374 391.168C252.699 390.493 251.673 390.156 250.294 390.156C249.663 390.156 249.011 390.229 248.336 390.376C249.275 390.508 250.037 390.904 250.624 391.564C251.24 392.253 251.548 393.133 251.548 394.204C251.548 394.688 251.482 395.143 251.35 395.568C251.218 396.023 251.035 396.419 250.8 396.756H253.88C254.041 396.756 254.173 396.712 254.276 396.624C254.393 396.507 254.452 396.367 254.452 396.206V394.732ZM247.72 396.492C248.233 396.433 248.622 396.206 248.886 395.81C249.15 395.429 249.297 394.923 249.326 394.292C249.326 393.588 249.165 393.053 248.842 392.686C248.534 392.334 248.16 392.158 247.72 392.158C247.133 392.158 246.693 392.422 246.4 392.95C246.195 393.331 246.092 393.779 246.092 394.292C246.121 394.879 246.253 395.363 246.488 395.744C246.781 396.184 247.192 396.433 247.72 396.492ZM280.973 382.94V385.426L276.375 388.242C278.193 388.873 279.645 389.907 280.731 391.344C281.845 392.825 282.417 394.505 282.447 396.382C282.447 396.558 282.439 396.683 282.425 396.756H283.151V399H282.711L281.985 398.098H281.919C281.42 398.699 280.811 399 280.093 399H267.751C266.812 399 265.969 398.677 265.221 398.032C264.341 397.24 263.901 396.243 263.901 395.04V391.52L265.331 390.354H266.585V395.04C266.585 395.495 266.739 395.891 267.047 396.228C267.369 396.58 267.78 396.756 268.279 396.756H279.213C279.418 396.756 279.565 396.697 279.653 396.58C279.726 396.492 279.763 396.36 279.763 396.184C279.66 394.923 279.242 393.801 278.509 392.818C277.291 391.263 275.568 390.361 273.339 390.112C273.221 390.112 273.163 390.053 273.163 389.936L273.185 387.428L280.973 382.94ZM289.628 388.88V396.426V396.756H290.75V399H289.98L289.166 398.098H289.122C288.624 398.699 288 399 287.252 399H283.006V396.756H286.328C286.534 396.756 286.68 396.697 286.768 396.58C286.9 396.463 286.966 396.316 286.966 396.14V388.88H289.628ZM284.854 400.606C285.25 400.606 285.588 400.745 285.866 401.024C286.145 401.303 286.284 401.64 286.284 402.036C286.284 402.432 286.145 402.769 285.866 403.048C285.588 403.327 285.25 403.466 284.854 403.466C284.458 403.466 284.121 403.327 283.842 403.048C283.564 402.769 283.424 402.432 283.424 402.036C283.424 401.64 283.564 401.303 283.842 401.024C284.121 400.745 284.458 400.606 284.854 400.606ZM288.198 400.606C288.594 400.606 288.932 400.745 289.21 401.024C289.489 401.303 289.628 401.64 289.628 402.036C289.628 402.432 289.489 402.769 289.21 403.048C288.932 403.327 288.594 403.466 288.198 403.466C287.817 403.466 287.487 403.327 287.208 403.048C286.93 402.769 286.79 402.432 286.79 402.036C286.79 401.64 286.93 401.303 287.208 401.024C287.487 400.745 287.817 400.606 288.198 400.606ZM292.724 384.04C293.12 384.04 293.458 384.179 293.736 384.458C294.015 384.737 294.154 385.074 294.154 385.47C294.154 385.851 294.015 386.181 293.736 386.46C293.458 386.739 293.12 386.878 292.724 386.878C292.328 386.878 291.991 386.739 291.712 386.46C291.434 386.181 291.294 385.851 291.294 385.47C291.294 385.074 291.434 384.737 291.712 384.458C291.991 384.179 292.328 384.04 292.724 384.04ZM296.068 384.04C296.464 384.04 296.802 384.179 297.08 384.458C297.359 384.737 297.498 385.074 297.498 385.47C297.498 385.851 297.359 386.181 297.08 386.46C296.802 386.739 296.464 386.878 296.068 386.878C295.687 386.878 295.357 386.739 295.078 386.46C294.8 386.181 294.66 385.851 294.66 385.47C294.66 385.074 294.8 384.737 295.078 384.458C295.357 384.179 295.687 384.04 296.068 384.04ZM297.212 388.88V396.426V396.756H298.334V399H297.564L296.75 398.098H296.706C296.208 398.699 295.584 399 294.836 399H290.59V396.756H293.912C294.118 396.756 294.264 396.697 294.352 396.58C294.484 396.463 294.55 396.316 294.55 396.14V388.88H297.212ZM321.516 388.88V396.074V396.756H322.638V399H321.78L321.054 398.098H321.01C320.512 398.699 319.888 399 319.14 399H314.432L313.706 398.098H313.64C313.156 398.699 312.54 399 311.792 399H307.062L306.336 398.098H306.27C305.786 398.699 305.17 399 304.422 399H298.174V396.756H303.564C303.931 396.756 304.114 396.573 304.114 396.206V391.41H306.798V396.074C306.798 396.382 306.791 396.609 306.776 396.756H310.934C311.301 396.756 311.484 396.573 311.484 396.206V390.134H314.168V396.008C314.168 396.096 314.161 396.228 314.146 396.404C314.146 396.565 314.146 396.683 314.146 396.756H318.282C318.649 396.756 318.832 396.573 318.832 396.206V388.88H321.516ZM325.399 389.254C326.792 388.829 328.061 388.616 329.205 388.616C330.979 388.616 332.409 389.173 333.495 390.288C334.477 391.285 334.969 392.547 334.969 394.072V396.426V396.756H335.695V399H335.233L334.507 398.098H334.463C333.964 398.699 333.341 399 332.593 399H322.473V396.756H331.735C332.101 396.756 332.285 396.573 332.285 396.206V394.226C332.285 393.229 331.947 392.429 331.273 391.828C330.613 391.212 329.74 390.904 328.655 390.904C327.936 390.904 326.851 391.065 325.399 391.388V389.254ZM328.479 400.606C328.875 400.606 329.212 400.745 329.491 401.024C329.769 401.303 329.909 401.64 329.909 402.036C329.909 402.432 329.769 402.769 329.491 403.048C329.212 403.327 328.875 403.466 328.479 403.466C328.097 403.466 327.767 403.327 327.489 403.048C327.21 402.769 327.071 402.432 327.071 402.036C327.071 401.64 327.21 401.303 327.489 401.024C327.767 400.745 328.097 400.606 328.479 400.606ZM342.158 383.248V396.58C342.158 397.196 341.96 397.724 341.564 398.164C341.109 398.721 340.515 399 339.782 399H335.536V396.756H338.924C339.085 396.756 339.224 396.697 339.342 396.58C339.444 396.477 339.496 396.353 339.496 396.206V383.248H342.158ZM351.921 398.23C351.921 399.653 352.28 400.643 352.999 401.2C353.732 401.757 355.023 402.036 356.871 402.036C359.716 402.036 361.139 401.281 361.139 399.77C361.139 399.227 360.963 398.802 360.611 398.494C360.259 398.186 359.591 397.878 358.609 397.57C357.201 397.13 356.203 396.587 355.617 395.942C354.971 395.238 354.649 394.292 354.649 393.104C354.649 391.535 355.14 390.361 356.123 389.584C356.944 388.939 358.051 388.616 359.445 388.616C360.325 388.616 361.183 388.748 362.019 389.012V391.036C361.212 390.831 360.508 390.728 359.907 390.728C359.071 390.728 358.418 390.941 357.949 391.366C357.479 391.791 357.245 392.378 357.245 393.126C357.245 393.727 357.413 394.189 357.751 394.512C358.088 394.82 358.785 395.165 359.841 395.546C361.19 396.03 362.151 396.558 362.723 397.13C363.427 397.819 363.779 398.692 363.779 399.748C363.779 401.405 363.038 402.623 361.557 403.4C360.501 403.972 359.203 404.258 357.663 404.258H355.485C353.769 404.258 352.368 403.84 351.283 403.004C349.919 401.977 349.237 400.467 349.237 398.472V396.25L350.601 395.172H351.921V398.23ZM372.477 388.88V396.756H373.599V399H372.455C372.337 400.76 371.641 402.109 370.365 403.048C369.309 403.825 368.011 404.214 366.471 404.214C366.207 404.214 365.921 404.207 365.613 404.192L364.535 402.85V401.904C365.004 401.977 365.459 402.014 365.899 402.014C368.495 402.014 369.793 400.753 369.793 398.23V388.88H372.477ZM380.077 388.88V396.426V396.756H381.199V399H380.429L379.615 398.098H379.571C379.073 398.699 378.449 399 377.701 399H373.455V396.756H376.777C376.983 396.756 377.129 396.697 377.217 396.58C377.349 396.463 377.415 396.316 377.415 396.14V388.88H380.077ZM378.669 400.606C379.051 400.606 379.381 400.745 379.659 401.024C379.938 401.303 380.077 401.64 380.077 402.036C380.077 402.432 379.938 402.769 379.659 403.048C379.381 403.327 379.051 403.466 378.669 403.466C378.273 403.466 377.936 403.327 377.657 403.048C377.379 402.769 377.239 402.432 377.239 402.036C377.239 401.64 377.379 401.303 377.657 401.024C377.936 400.745 378.273 400.606 378.669 400.606ZM386.385 389.122C388.057 388.389 389.693 388.022 391.291 388.022C393.359 388.022 394.936 388.667 396.021 389.958C396.945 391.073 397.407 392.547 397.407 394.38V396.58C397.407 397.24 397.158 397.819 396.659 398.318C396.205 398.773 395.662 399 395.031 399H389.685C388.923 399 388.38 398.919 388.057 398.758H387.969C387.647 398.919 387.104 399 386.341 399H381.017V396.756H384.977C384.728 396.404 384.545 396.03 384.427 395.634C384.281 395.209 384.207 394.732 384.207 394.204C384.207 393.324 384.427 392.547 384.867 391.872C385.234 391.329 385.74 390.919 386.385 390.64V389.122ZM394.723 394.732C394.723 393.089 394.364 391.901 393.645 391.168C392.971 390.493 391.944 390.156 390.565 390.156C389.935 390.156 389.282 390.229 388.607 390.376C389.546 390.508 390.309 390.904 390.895 391.564C391.511 392.253 391.819 393.133 391.819 394.204C391.819 394.688 391.753 395.143 391.621 395.568C391.489 396.023 391.306 396.419 391.071 396.756H394.151C394.313 396.756 394.445 396.712 394.547 396.624C394.665 396.507 394.723 396.367 394.723 396.206V394.732ZM387.991 396.492C388.505 396.433 388.893 396.206 389.157 395.81C389.421 395.429 389.568 394.923 389.597 394.292C389.597 393.588 389.436 393.053 389.113 392.686C388.805 392.334 388.431 392.158 387.991 392.158C387.405 392.158 386.965 392.422 386.671 392.95C386.466 393.331 386.363 393.779 386.363 394.292C386.393 394.879 386.525 395.363 386.759 395.744C387.053 396.184 387.463 396.433 387.991 396.492ZM402.817 383.248V398.45L401.453 399.55H400.133V383.248H402.817ZM410.483 388.88V398.472C410.483 400.291 409.925 401.699 408.811 402.696C408.092 403.356 407.168 403.818 406.039 404.082C405.511 404.185 404.961 404.236 404.389 404.236C404.198 404.236 403.941 404.221 403.619 404.192L402.541 402.85V401.904C403.01 401.977 403.465 402.014 403.905 402.014C406.501 402.014 407.799 400.753 407.799 398.23V388.88H410.483Z" fill="black"/>
<path d="M393.947 63.8539V266.633H345.626V88.0148L234.313 221.763H330.094V266.633H195.483L163.556 228.666C190.881 200.766 242.215 138.426 250.708 126.845C257.036 118.216 245.53 110.45 237.764 113.901L154.064 215.722C139.682 196.739 109.194 157.909 102.291 154.457C95.3875 151.006 89.6349 155.895 87.6215 158.772V266.633H41.0254V63.8539H87.6215L154.064 141.514L218.781 63.8539H393.947Z" fill="#0B0B0B"/>
<path d="M345.626 0H393.947V48.3218H345.626V0Z" fill="#0B0B0B"/>
<path d="M211.561 209.276C301.654 140.861 355.501 60.1317 331.832 28.9629C308.162 -2.20591 215.94 27.9883 125.847 96.4035C124.749 97.2379 123.655 98.0741 122.567 98.9121C199.746 41.1757 277.478 15.3962 297.172 41.33C317.129 67.6112 269.926 137.048 191.739 196.422C113.553 255.796 33.9915 282.622 14.0339 256.341C3.03051 241.851 12.4425 214.243 36.2064 182.436C4.64449 222.648 -8.39508 258.317 5.57709 276.716C29.2463 307.885 121.469 277.691 211.561 209.276Z" fill="#DC3430"/>
<rect x="345" width="49" height="49" fill="#DC3430"/>
</svg>
